<svg width="39" height="39" viewBox="0 0 39 39" fill="none" xmlns="http://www.w3.org/2000/svg">
<g filter="url(#filter0_d)">
<circle cx="19.5" cy="15.5" r="15.5" fill="white"/>
</g>
<path d="M22.5146 13.7529C22.5146 14.4316 22.3169 14.998 21.9214 15.4521C21.5259 15.9014 20.9692 16.2041 20.2515 16.3604V16.4189C21.1108 16.5264 21.7554 16.7949 22.1851 17.2246C22.6147 17.6494 22.8296 18.2158 22.8296 18.9238C22.8296 19.9541 22.4658 20.75 21.7383 21.3115C21.0107 21.8682 19.9756 22.1465 18.6328 22.1465C17.4463 22.1465 16.4453 21.9536 15.6299 21.5679V20.0371C16.084 20.2617 16.5649 20.4351 17.0728 20.5571C17.5806 20.6792 18.0688 20.7402 18.5376 20.7402C19.3677 20.7402 19.9878 20.5864 20.3979 20.2788C20.8081 19.9712 21.0132 19.4951 21.0132 18.8506C21.0132 18.2793 20.7861 17.8594 20.332 17.5908C19.8779 17.3223 19.165 17.188 18.1934 17.188H17.2632V15.7891H18.208C19.917 15.7891 20.7715 15.1982 20.7715 14.0166C20.7715 13.5576 20.6226 13.2036 20.3247 12.9546C20.0269 12.7056 19.5874 12.5811 19.0063 12.5811C18.6011 12.5811 18.2104 12.6396 17.8345 12.7568C17.4585 12.8691 17.0142 13.0913 16.5015 13.4233L15.6592 12.2222C16.6406 11.4995 17.7808 11.1382 19.0796 11.1382C20.1587 11.1382 21.001 11.3701 21.6064 11.834C22.2119 12.2979 22.5146 12.9375 22.5146 13.7529Z" fill="black"/>
<defs>
<filter id="filter0_d" x="0" y="0" width="39" height="39" filterUnits="userSpaceOnUse" color-interpolation-filters="sRGB">
<feFlood flood-opacity="0" result="BackgroundImageFix"/>
<feColorMatrix in="SourceAlpha" type="matrix" values="0 0 0 0 0 0 0 0 0 0 0 0 0 0 0 0 0 0 127 0"/>
<feOffset dy="4"/>
<feGaussianBlur stdDeviation="2"/>
<feColorMatrix type="matrix" values="0 0 0 0 0 0 0 0 0 0 0 0 0 0 0 0 0 0 0.25 0"/>
<feBlend mode="normal" in2="BackgroundImageFix" result="effect1_dropShadow"/>
<feBlend mode="normal" in="SourceGraphic" in2="effect1_dropShadow" result="shape"/>
</filter>
</defs>
</svg>
