<svg width="39" height="39" viewBox="0 0 39 39" fill="none" xmlns="http://www.w3.org/2000/svg">
<g filter="url(#filter0_d)">
<circle cx="19.5" cy="15.5" r="15.5" fill="white"/>
</g>
<path d="M15.6885 17.437C15.6885 13.2476 17.395 11.1528 20.8081 11.1528C21.3452 11.1528 21.7993 11.1943 22.1704 11.2773V12.7129C21.7993 12.6055 21.3696 12.5518 20.8813 12.5518C19.7339 12.5518 18.8721 12.8594 18.2959 13.4746C17.7197 14.0898 17.4072 15.0762 17.3584 16.4336H17.4463C17.6758 16.0381 17.998 15.7329 18.4131 15.5181C18.8281 15.2983 19.3164 15.1885 19.8779 15.1885C20.8496 15.1885 21.6064 15.4863 22.1484 16.082C22.6904 16.6777 22.9614 17.4858 22.9614 18.5063C22.9614 19.6294 22.6465 20.5181 22.0166 21.1724C21.3916 21.8218 20.5371 22.1465 19.4531 22.1465C18.6865 22.1465 18.02 21.9634 17.4536 21.5972C16.8872 21.2261 16.4502 20.689 16.1426 19.9858C15.8398 19.2778 15.6885 18.4282 15.6885 17.437ZM19.4238 20.7256C20.0146 20.7256 20.4688 20.5352 20.7861 20.1543C21.1084 19.7734 21.2695 19.229 21.2695 18.521C21.2695 17.9058 21.1182 17.4224 20.8154 17.0708C20.5176 16.7192 20.0684 16.5435 19.4678 16.5435C19.0967 16.5435 18.7549 16.624 18.4424 16.7852C18.1299 16.9414 17.8833 17.1587 17.7026 17.437C17.522 17.7104 17.4316 17.9912 17.4316 18.2793C17.4316 18.9678 17.6172 19.5488 17.9883 20.0225C18.3643 20.4912 18.8428 20.7256 19.4238 20.7256Z" fill="black"/>
<defs>
<filter id="filter0_d" x="0" y="0" width="39" height="39" filterUnits="userSpaceOnUse" color-interpolation-filters="sRGB">
<feFlood flood-opacity="0" result="BackgroundImageFix"/>
<feColorMatrix in="SourceAlpha" type="matrix" values="0 0 0 0 0 0 0 0 0 0 0 0 0 0 0 0 0 0 127 0"/>
<feOffset dy="4"/>
<feGaussianBlur stdDeviation="2"/>
<feColorMatrix type="matrix" values="0 0 0 0 0 0 0 0 0 0 0 0 0 0 0 0 0 0 0.25 0"/>
<feBlend mode="normal" in2="BackgroundImageFix" result="effect1_dropShadow"/>
<feBlend mode="normal" in="SourceGraphic" in2="effect1_dropShadow" result="shape"/>
</filter>
</defs>
</svg>
