<svg width="194" height="55" viewBox="0 0 194 55" fill="none" xmlns="http://www.w3.org/2000/svg">
<g filter="url(#filter0_d)">
<rect x="4.00342" y="0.75" width="185" height="46" rx="5" fill="#3250BD"/>
</g>
<path d="M50.8999 18.7871C49.7606 18.7871 48.8784 19.2168 48.2534 20.0762C47.6284 20.929 47.3159 22.1204 47.3159 23.6504C47.3159 26.834 48.5106 28.4258 50.8999 28.4258C51.9025 28.4258 53.1167 28.1751 54.5425 27.6738V30.2129C53.3706 30.7012 52.062 30.9453 50.6167 30.9453C48.5399 30.9453 46.9513 30.3171 45.8511 29.0605C44.7508 27.7975 44.2007 25.9876 44.2007 23.6309C44.2007 22.1465 44.4709 20.8477 45.0112 19.7344C45.5516 18.6146 46.3263 17.7585 47.3354 17.166C48.3511 16.5671 49.5392 16.2676 50.8999 16.2676C52.2866 16.2676 53.6799 16.6029 55.0796 17.2734L54.103 19.7344C53.5692 19.4805 53.0321 19.2591 52.4917 19.0703C51.9513 18.8815 51.4207 18.7871 50.8999 18.7871ZM69.2886 30.75H66.271V24.5879H60.6167V30.75H57.5894V16.4727H60.6167V22.0684H66.271V16.4727H69.2886V30.75ZM81.1245 30.75H72.9019V16.4727H81.1245V18.9531H75.9292V22.0879H80.7632V24.5684H75.9292V28.25H81.1245V30.75ZM90.1772 18.7871C89.0379 18.7871 88.1558 19.2168 87.5308 20.0762C86.9058 20.929 86.5933 22.1204 86.5933 23.6504C86.5933 26.834 87.7879 28.4258 90.1772 28.4258C91.1799 28.4258 92.394 28.1751 93.8198 27.6738V30.2129C92.6479 30.7012 91.3394 30.9453 89.894 30.9453C87.8172 30.9453 86.2287 30.3171 85.1284 29.0605C84.0282 27.7975 83.478 25.9876 83.478 23.6309C83.478 22.1465 83.7482 20.8477 84.2886 19.7344C84.8289 18.6146 85.6037 17.7585 86.6128 17.166C87.6284 16.5671 88.8166 16.2676 90.1772 16.2676C91.564 16.2676 92.9572 16.6029 94.3569 17.2734L93.3804 19.7344C92.8465 19.4805 92.3094 19.2591 91.769 19.0703C91.2287 18.8815 90.6981 18.7871 90.1772 18.7871ZM108.351 30.75H104.914L101.173 24.7344L99.894 25.6523V30.75H96.8667V16.4727H99.894V23.0059L101.085 21.3262L104.953 16.4727H108.312L103.332 22.791L108.351 30.75ZM123.107 23.5918C123.107 25.9551 122.521 27.7715 121.349 29.041C120.177 30.3105 118.498 30.9453 116.31 30.9453C114.123 30.9453 112.443 30.3105 111.271 29.041C110.099 27.7715 109.513 25.9486 109.513 23.5723C109.513 21.196 110.099 19.3828 111.271 18.1328C112.449 16.8763 114.136 16.248 116.33 16.248C118.524 16.248 120.2 16.8796 121.359 18.1426C122.524 19.4056 123.107 21.222 123.107 23.5918ZM112.687 23.5918C112.687 25.1868 112.99 26.388 113.595 27.1953C114.201 28.0026 115.106 28.4062 116.31 28.4062C118.725 28.4062 119.933 26.8014 119.933 23.5918C119.933 20.3757 118.732 18.7676 116.33 18.7676C115.125 18.7676 114.217 19.1745 113.605 19.9883C112.993 20.7956 112.687 21.9967 112.687 23.5918ZM137.687 16.4727V25.7109C137.687 26.7656 137.449 27.6901 136.974 28.4844C136.505 29.2786 135.825 29.8874 134.933 30.3105C134.041 30.7337 132.986 30.9453 131.769 30.9453C129.933 30.9453 128.507 30.4766 127.492 29.5391C126.476 28.5951 125.968 27.306 125.968 25.6719V16.4727H128.986V25.2129C128.986 26.3132 129.207 27.1204 129.65 27.6348C130.093 28.1491 130.825 28.4062 131.847 28.4062C132.837 28.4062 133.553 28.1491 133.996 27.6348C134.445 27.1139 134.669 26.3001 134.669 25.1934V16.4727H137.687ZM146.691 30.75H143.664V18.9922H139.787V16.4727H150.568V18.9922H146.691V30.75Z" fill="white"/>
<defs>
<filter id="filter0_d" x="0.00341797" y="0.75" width="193" height="54" filterUnits="userSpaceOnUse" color-interpolation-filters="sRGB">
<feFlood flood-opacity="0" result="BackgroundImageFix"/>
<feColorMatrix in="SourceAlpha" type="matrix" values="0 0 0 0 0 0 0 0 0 0 0 0 0 0 0 0 0 0 127 0"/>
<feOffset dy="4"/>
<feGaussianBlur stdDeviation="2"/>
<feColorMatrix type="matrix" values="0 0 0 0 0 0 0 0 0 0 0 0 0 0 0 0 0 0 0.25 0"/>
<feBlend mode="normal" in2="BackgroundImageFix" result="effect1_dropShadow"/>
<feBlend mode="normal" in="SourceGraphic" in2="effect1_dropShadow" result="shape"/>
</filter>
</defs>
</svg>
