<svg width="513" height="41" viewBox="0 0 513 41" fill="none" xmlns="http://www.w3.org/2000/svg">
<path d="M467.419 21.1338C467.419 22.1722 467.039 23.028 466.28 23.7012C465.521 24.3743 464.425 24.7897 462.993 24.9473V27.2783H461.564V25.0117C459.788 24.9831 458.331 24.7109 457.192 24.1953V21.9287C457.808 22.2295 458.528 22.4837 459.352 22.6914C460.175 22.8919 460.913 22.9958 461.564 23.0029V18.9854L460.662 18.6523C459.488 18.2012 458.628 17.6641 458.084 17.041C457.547 16.4108 457.278 15.6338 457.278 14.71C457.278 13.7217 457.661 12.9089 458.428 12.2715C459.201 11.6341 460.247 11.2474 461.564 11.1113V9.30664H462.993V11.0791C464.447 11.1292 465.826 11.4229 467.129 11.96L466.345 13.9258C465.22 13.4818 464.103 13.2168 462.993 13.1309V17.041L463.81 17.3525C465.17 17.8753 466.112 18.4268 466.635 19.0068C467.158 19.5869 467.419 20.2959 467.419 21.1338ZM464.884 21.2949C464.884 20.8796 464.737 20.5394 464.443 20.2744C464.157 20.0023 463.674 19.7409 462.993 19.4902V22.917C464.254 22.7236 464.884 22.1829 464.884 21.2949ZM459.803 14.6885C459.803 15.0967 459.928 15.4368 460.179 15.709C460.437 15.9811 460.898 16.2497 461.564 16.5146V13.1738C460.992 13.2598 460.555 13.4352 460.254 13.7002C459.953 13.9652 459.803 14.2946 459.803 14.6885ZM471.318 26L477.527 12.54H469.363V10.3164H480.224V12.0781L474.047 26H471.318ZM482.565 24.6572C482.565 24.1344 482.701 23.7334 482.974 23.4541C483.246 23.1748 483.64 23.0352 484.155 23.0352C484.678 23.0352 485.076 23.182 485.348 23.4756C485.62 23.762 485.756 24.1559 485.756 24.6572C485.756 25.1657 485.616 25.5703 485.337 25.8711C485.065 26.1647 484.671 26.3115 484.155 26.3115C483.64 26.3115 483.246 26.1647 482.974 25.8711C482.701 25.5775 482.565 25.1729 482.565 24.6572ZM493.49 16.1924C495.073 16.1924 496.326 16.6113 497.25 17.4492C498.174 18.2871 498.636 19.4294 498.636 20.876C498.636 22.5518 498.109 23.8623 497.057 24.8076C496.011 25.7458 494.521 26.2148 492.588 26.2148C490.833 26.2148 489.455 25.932 488.452 25.3662V23.0781C489.032 23.4076 489.698 23.6618 490.45 23.8408C491.202 24.0199 491.9 24.1094 492.545 24.1094C493.684 24.1094 494.55 23.8551 495.145 23.3467C495.739 22.8382 496.036 22.0934 496.036 21.1123C496.036 19.236 494.84 18.2979 492.448 18.2979C492.112 18.2979 491.696 18.3337 491.202 18.4053C490.708 18.4697 490.275 18.5449 489.902 18.6309L488.774 17.9648L489.376 10.2949H497.54V12.54H491.6L491.245 16.4287C491.496 16.3857 491.8 16.3356 492.158 16.2783C492.523 16.221 492.967 16.1924 493.49 16.1924ZM511.376 18.1475C511.376 20.876 510.936 22.9027 510.055 24.2275C509.181 25.5524 507.842 26.2148 506.037 26.2148C504.29 26.2148 502.965 25.5309 502.062 24.1631C501.16 22.7952 500.709 20.79 500.709 18.1475C500.709 15.376 501.146 13.335 502.02 12.0244C502.9 10.7067 504.24 10.0479 506.037 10.0479C507.792 10.0479 509.12 10.7354 510.022 12.1104C510.925 13.4854 511.376 15.4977 511.376 18.1475ZM503.266 18.1475C503.266 20.2887 503.484 21.8177 503.921 22.7344C504.365 23.651 505.07 24.1094 506.037 24.1094C507.004 24.1094 507.709 23.6439 508.153 22.7129C508.604 21.7819 508.83 20.2601 508.83 18.1475C508.83 16.042 508.604 14.5202 508.153 13.582C507.709 12.6367 507.004 12.1641 506.037 12.1641C505.07 12.1641 504.365 12.626 503.921 13.5498C503.484 14.4736 503.266 16.0062 503.266 18.1475Z" fill="black"/>
<path d="M402.117 14.8711C402.117 16.4609 401.573 17.6855 400.484 18.5449C399.403 19.3971 397.853 19.8232 395.833 19.8232H393.985V26H392.159V10.2949H396.23C400.155 10.2949 402.117 11.8203 402.117 14.8711ZM393.985 18.2549H395.629C397.247 18.2549 398.418 17.9935 399.142 17.4707C399.865 16.9479 400.227 16.11 400.227 14.957C400.227 13.9186 399.886 13.1452 399.206 12.6367C398.526 12.1283 397.466 11.874 396.026 11.874H393.985V18.2549ZM410.518 14.0117C411.04 14.0117 411.509 14.0547 411.925 14.1406L411.678 15.7949C411.191 15.6875 410.761 15.6338 410.389 15.6338C409.436 15.6338 408.62 16.0205 407.939 16.7939C407.266 17.5674 406.93 18.5306 406.93 19.6836V26H405.146V14.2266H406.618L406.822 16.4072H406.908C407.345 15.641 407.871 15.0501 408.487 14.6348C409.103 14.2194 409.78 14.0117 410.518 14.0117ZM415.91 26H414.127V14.2266H415.91V26ZM413.977 11.0361C413.977 10.6279 414.077 10.3307 414.277 10.1445C414.478 9.95117 414.729 9.85449 415.029 9.85449C415.316 9.85449 415.563 9.95117 415.771 10.1445C415.978 10.3379 416.082 10.6351 416.082 11.0361C416.082 11.4372 415.978 11.738 415.771 11.9385C415.563 12.1318 415.316 12.2285 415.029 12.2285C414.729 12.2285 414.478 12.1318 414.277 11.9385C414.077 11.738 413.977 11.4372 413.977 11.0361ZM424.396 26.2148C422.692 26.2148 421.371 25.6921 420.433 24.6465C419.502 23.5938 419.036 22.1077 419.036 20.1885C419.036 18.2191 419.509 16.6973 420.454 15.623C421.407 14.5488 422.76 14.0117 424.515 14.0117C425.08 14.0117 425.646 14.0726 426.212 14.1943C426.778 14.3161 427.222 14.4593 427.544 14.624L426.996 16.1387C426.602 15.9811 426.173 15.8522 425.707 15.752C425.242 15.6445 424.83 15.5908 424.472 15.5908C422.08 15.5908 420.884 17.1162 420.884 20.167C420.884 21.6136 421.174 22.7236 421.754 23.4971C422.341 24.2705 423.208 24.6572 424.354 24.6572C425.335 24.6572 426.341 24.446 427.372 24.0234V25.6025C426.584 26.0107 425.592 26.2148 424.396 26.2148ZM435.149 26.2148C433.409 26.2148 432.034 25.6849 431.024 24.625C430.022 23.5651 429.521 22.0934 429.521 20.21C429.521 18.3122 429.986 16.8047 430.917 15.6875C431.855 14.5703 433.112 14.0117 434.688 14.0117C436.163 14.0117 437.33 14.4987 438.189 15.4727C439.049 16.4395 439.479 17.7178 439.479 19.3076V20.4355H431.368C431.404 21.8177 431.751 22.8669 432.41 23.583C433.076 24.2992 434.011 24.6572 435.214 24.6572C436.481 24.6572 437.735 24.3923 438.974 23.8623V25.4521C438.343 25.7243 437.745 25.9176 437.18 26.0322C436.621 26.154 435.944 26.2148 435.149 26.2148ZM434.666 15.5049C433.721 15.5049 432.965 15.8128 432.399 16.4287C431.841 17.0446 431.511 17.8968 431.411 18.9854H437.566C437.566 17.861 437.316 17.0016 436.814 16.4072C436.313 15.8057 435.597 15.5049 434.666 15.5049ZM442.271 24.8613C442.271 24.3815 442.379 24.0199 442.594 23.7764C442.816 23.5257 443.131 23.4004 443.539 23.4004C443.954 23.4004 444.277 23.5257 444.506 23.7764C444.742 24.0199 444.86 24.3815 444.86 24.8613C444.86 25.3268 444.742 25.6849 444.506 25.9355C444.27 26.1862 443.947 26.3115 443.539 26.3115C443.174 26.3115 442.869 26.2005 442.626 25.9785C442.39 25.7493 442.271 25.377 442.271 24.8613ZM442.271 15.376C442.271 14.4092 442.694 13.9258 443.539 13.9258C444.42 13.9258 444.86 14.4092 444.86 15.376C444.86 15.8415 444.742 16.1995 444.506 16.4502C444.27 16.7008 443.947 16.8262 443.539 16.8262C443.174 16.8262 442.869 16.7152 442.626 16.4932C442.39 16.264 442.271 15.8916 442.271 15.376Z" fill="black"/>
<g filter="url(#filter0_d)">
<rect x="4" width="147" height="33" rx="3" fill="white"/>
</g>
<path d="M135.272 14.1465L129 20.3983L122.728 14.1465L122 14.8766L129 21.8538L136 14.8766L135.272 14.1465Z" fill="black"/>
<path d="M31.9199 16.5576C31.9199 18.2041 31.5889 19.5723 30.9268 20.6621C30.2646 21.752 29.3301 22.4902 28.123 22.877L31.1816 26.0586H29.0107L26.5059 23.1582L26.0225 23.1758C24.1299 23.1758 22.668 22.5986 21.6367 21.4443C20.6113 20.2842 20.0986 18.6494 20.0986 16.54C20.0986 14.4482 20.6143 12.8281 21.6455 11.6797C22.6768 10.5254 24.1416 9.94824 26.04 9.94824C27.8857 9.94824 29.3271 10.5342 30.3643 11.7061C31.4014 12.8779 31.9199 14.4951 31.9199 16.5576ZM21.6807 16.5576C21.6807 18.2979 22.0498 19.6191 22.7881 20.5215C23.5322 21.418 24.6104 21.8662 26.0225 21.8662C27.4463 21.8662 28.5215 21.418 29.248 20.5215C29.9746 19.625 30.3379 18.3037 30.3379 16.5576C30.3379 14.8291 29.9746 13.5195 29.248 12.6289C28.5273 11.7324 27.458 11.2842 26.04 11.2842C24.6162 11.2842 23.5322 11.7354 22.7881 12.6377C22.0498 13.5342 21.6807 14.8408 21.6807 16.5576ZM35.9453 13.3672V19.6162C35.9453 20.4014 36.124 20.9873 36.4814 21.374C36.8389 21.7607 37.3984 21.9541 38.1602 21.9541C39.168 21.9541 39.9033 21.6787 40.3662 21.1279C40.835 20.5771 41.0693 19.6777 41.0693 18.4297V13.3672H42.5283V23H41.3242L41.1133 21.708H41.0342C40.7354 22.1826 40.3193 22.5459 39.7861 22.7979C39.2588 23.0498 38.6553 23.1758 37.9756 23.1758C36.8037 23.1758 35.9248 22.8975 35.3389 22.3408C34.7588 21.7842 34.4688 20.8936 34.4688 19.6689V13.3672H35.9453ZM51.5547 23L51.2646 21.6289H51.1943C50.7139 22.2324 50.2334 22.6426 49.7529 22.8594C49.2783 23.0703 48.6836 23.1758 47.9688 23.1758C47.0137 23.1758 46.2637 22.9297 45.7188 22.4375C45.1797 21.9453 44.9102 21.2451 44.9102 20.3369C44.9102 18.3916 46.4658 17.3721 49.5771 17.2783L51.2119 17.2256V16.6279C51.2119 15.8721 51.0479 15.3154 50.7197 14.958C50.3975 14.5947 49.8789 14.4131 49.1641 14.4131C48.3613 14.4131 47.4531 14.6592 46.4395 15.1514L45.9912 14.0352C46.4658 13.7773 46.9844 13.5752 47.5469 13.4287C48.1152 13.2822 48.6836 13.209 49.252 13.209C50.4004 13.209 51.25 13.4639 51.8008 13.9736C52.3574 14.4834 52.6357 15.3008 52.6357 16.4258V23H51.5547ZM48.2588 21.9717C49.167 21.9717 49.8789 21.7227 50.3945 21.2246C50.916 20.7266 51.1768 20.0293 51.1768 19.1328V18.2627L49.7178 18.3242C48.5576 18.3652 47.7197 18.5469 47.2041 18.8691C46.6943 19.1855 46.4395 19.6807 46.4395 20.3545C46.4395 20.8818 46.5977 21.2832 46.9141 21.5586C47.2363 21.834 47.6846 21.9717 48.2588 21.9717ZM62.2422 23V16.7686C62.2422 15.9834 62.0635 15.3975 61.7061 15.0107C61.3486 14.624 60.7891 14.4307 60.0273 14.4307C59.0195 14.4307 58.2812 14.7031 57.8125 15.248C57.3438 15.793 57.1094 16.6924 57.1094 17.9463V23H55.6504V13.3672H56.8369L57.0742 14.6855H57.1445C57.4434 14.2109 57.8623 13.8447 58.4014 13.5869C58.9404 13.3232 59.541 13.1914 60.2031 13.1914C61.3633 13.1914 62.2363 13.4727 62.8223 14.0352C63.4082 14.5918 63.7012 15.4854 63.7012 16.7158V23H62.2422ZM69.8184 21.9717C70.0762 21.9717 70.3252 21.9541 70.5654 21.9189C70.8057 21.8779 70.9961 21.8369 71.1367 21.7959V22.9121C70.9785 22.9883 70.7441 23.0498 70.4336 23.0967C70.1289 23.1494 69.8535 23.1758 69.6074 23.1758C67.7441 23.1758 66.8125 22.1943 66.8125 20.2314V14.501H65.4326V13.7979L66.8125 13.1914L67.4277 11.1348H68.2715V13.3672H71.0664V14.501H68.2715V20.1699C68.2715 20.75 68.4092 21.1953 68.6846 21.5059C68.96 21.8164 69.3379 21.9717 69.8184 21.9717ZM74.5293 23H73.0703V13.3672H74.5293V23ZM72.9473 10.7568C72.9473 10.4229 73.0293 10.1797 73.1934 10.0273C73.3574 9.86914 73.5625 9.79004 73.8086 9.79004C74.043 9.79004 74.2451 9.86914 74.415 10.0273C74.585 10.1855 74.6699 10.4287 74.6699 10.7568C74.6699 11.085 74.585 11.3311 74.415 11.4951C74.2451 11.6533 74.043 11.7324 73.8086 11.7324C73.5625 11.7324 73.3574 11.6533 73.1934 11.4951C73.0293 11.3311 72.9473 11.085 72.9473 10.7568ZM80.7344 21.9717C80.9922 21.9717 81.2412 21.9541 81.4814 21.9189C81.7217 21.8779 81.9121 21.8369 82.0527 21.7959V22.9121C81.8945 22.9883 81.6602 23.0498 81.3496 23.0967C81.0449 23.1494 80.7695 23.1758 80.5234 23.1758C78.6602 23.1758 77.7285 22.1943 77.7285 20.2314V14.501H76.3486V13.7979L77.7285 13.1914L78.3438 11.1348H79.1875V13.3672H81.9824V14.501H79.1875V20.1699C79.1875 20.75 79.3252 21.1953 79.6006 21.5059C79.876 21.8164 80.2539 21.9717 80.7344 21.9717ZM82.457 13.3672H84.0215L86.1309 18.8604C86.5938 20.1143 86.8809 21.0195 86.9922 21.5762H87.0625C87.1387 21.2773 87.2969 20.7676 87.5371 20.0469C87.7832 19.3203 88.5801 17.0938 89.9277 13.3672H91.4922L87.3525 24.3359C86.9424 25.4199 86.4619 26.1875 85.9111 26.6387C85.3662 27.0957 84.6953 27.3242 83.8984 27.3242C83.4531 27.3242 83.0137 27.2744 82.5801 27.1748V26.0059C82.9023 26.0762 83.2627 26.1113 83.6611 26.1113C84.6631 26.1113 85.3779 25.5488 85.8057 24.4238L86.3418 23.0527L82.457 13.3672ZM92.8457 22.0684C92.8457 21.6758 92.9336 21.3799 93.1094 21.1807C93.291 20.9756 93.5488 20.873 93.8828 20.873C94.2227 20.873 94.4863 20.9756 94.6738 21.1807C94.8672 21.3799 94.9639 21.6758 94.9639 22.0684C94.9639 22.4492 94.8672 22.7422 94.6738 22.9473C94.4805 23.1523 94.2168 23.2549 93.8828 23.2549C93.584 23.2549 93.335 23.1641 93.1357 22.9824C92.9424 22.7949 92.8457 22.4902 92.8457 22.0684ZM92.8457 14.3076C92.8457 13.5166 93.1914 13.1211 93.8828 13.1211C94.6035 13.1211 94.9639 13.5166 94.9639 14.3076C94.9639 14.6885 94.8672 14.9814 94.6738 15.1865C94.4805 15.3916 94.2168 15.4941 93.8828 15.4941C93.584 15.4941 93.335 15.4033 93.1357 15.2217C92.9424 15.0342 92.8457 14.7295 92.8457 14.3076ZM109.826 13.1738C109.826 13.9941 109.595 14.665 109.132 15.1865C108.675 15.708 108.024 16.0566 107.181 16.2324V16.3027C108.212 16.4316 108.977 16.7598 109.475 17.2871C109.973 17.8145 110.222 18.5059 110.222 19.3613C110.222 20.5859 109.797 21.5293 108.947 22.1914C108.098 22.8477 106.891 23.1758 105.326 23.1758C104.646 23.1758 104.022 23.123 103.454 23.0176C102.892 22.918 102.344 22.7393 101.811 22.4814V21.0928C102.367 21.3682 102.959 21.5791 103.586 21.7256C104.219 21.8662 104.816 21.9365 105.379 21.9365C107.6 21.9365 108.71 21.0664 108.71 19.3262C108.71 17.7676 107.485 16.9883 105.036 16.9883H103.771V15.7314H105.054C106.056 15.7314 106.85 15.5117 107.436 15.0723C108.021 14.627 108.314 14.0117 108.314 13.2266C108.314 12.5996 108.098 12.1074 107.664 11.75C107.236 11.3926 106.653 11.2139 105.915 11.2139C105.353 11.2139 104.822 11.29 104.324 11.4424C103.826 11.5947 103.258 11.876 102.619 12.2861L101.881 11.3018C102.408 10.8857 103.015 10.5605 103.7 10.3262C104.392 10.0859 105.118 9.96582 105.88 9.96582C107.128 9.96582 108.098 10.2529 108.789 10.8271C109.48 11.3955 109.826 12.1777 109.826 13.1738Z" fill="black"/>
<g filter="url(#filter1_d)">
<rect x="176" width="175" height="33" rx="3" fill="white"/>
</g>
<path d="M331.272 14.1465L325 20.3983L318.728 14.1465L318 14.8766L325 21.8538L332 14.8766L331.272 14.1465Z" fill="black"/>
<path d="M198.418 16.2676H202.786V22.5166C202.106 22.7334 201.415 22.8975 200.712 23.0088C200.009 23.1201 199.194 23.1758 198.269 23.1758C196.323 23.1758 194.809 22.5986 193.725 21.4443C192.641 20.2842 192.099 18.6611 192.099 16.5752C192.099 15.2393 192.365 14.0703 192.898 13.0684C193.438 12.0605 194.211 11.293 195.219 10.7656C196.227 10.2324 197.407 9.96582 198.761 9.96582C200.132 9.96582 201.409 10.2178 202.593 10.7217L202.013 12.04C200.853 11.5479 199.736 11.3018 198.664 11.3018C197.1 11.3018 195.878 11.7676 194.999 12.6992C194.12 13.6309 193.681 14.9229 193.681 16.5752C193.681 18.3096 194.103 19.625 194.946 20.5215C195.796 21.418 197.041 21.8662 198.682 21.8662C199.572 21.8662 200.442 21.7637 201.292 21.5586V17.6035H198.418V16.2676ZM207.119 23H205.66V9.32422H207.119V23ZM216.137 23L215.847 21.6289H215.776C215.296 22.2324 214.815 22.6426 214.335 22.8594C213.86 23.0703 213.266 23.1758 212.551 23.1758C211.596 23.1758 210.846 22.9297 210.301 22.4375C209.762 21.9453 209.492 21.2451 209.492 20.3369C209.492 18.3916 211.048 17.3721 214.159 17.2783L215.794 17.2256V16.6279C215.794 15.8721 215.63 15.3154 215.302 14.958C214.979 14.5947 214.461 14.4131 213.746 14.4131C212.943 14.4131 212.035 14.6592 211.021 15.1514L210.573 14.0352C211.048 13.7773 211.566 13.5752 212.129 13.4287C212.697 13.2822 213.266 13.209 213.834 13.209C214.982 13.209 215.832 13.4639 216.383 13.9736C216.939 14.4834 217.218 15.3008 217.218 16.4258V23H216.137ZM212.841 21.9717C213.749 21.9717 214.461 21.7227 214.977 21.2246C215.498 20.7266 215.759 20.0293 215.759 19.1328V18.2627L214.3 18.3242C213.14 18.3652 212.302 18.5469 211.786 18.8691C211.276 19.1855 211.021 19.6807 211.021 20.3545C211.021 20.8818 211.18 21.2832 211.496 21.5586C211.818 21.834 212.267 21.9717 212.841 21.9717ZM226.394 23H219.406V22.0068L224.662 14.501H219.731V13.3672H226.262V14.501L221.076 21.8662H226.394V23ZM230.111 23H228.652V13.3672H230.111V23ZM228.529 10.7568C228.529 10.4229 228.611 10.1797 228.775 10.0273C228.939 9.86914 229.145 9.79004 229.391 9.79004C229.625 9.79004 229.827 9.86914 229.997 10.0273C230.167 10.1855 230.252 10.4287 230.252 10.7568C230.252 11.085 230.167 11.3311 229.997 11.4951C229.827 11.6533 229.625 11.7324 229.391 11.7324C229.145 11.7324 228.939 11.6533 228.775 11.4951C228.611 11.3311 228.529 11.085 228.529 10.7568ZM239.797 23V16.7686C239.797 15.9834 239.618 15.3975 239.261 15.0107C238.903 14.624 238.344 14.4307 237.582 14.4307C236.574 14.4307 235.836 14.7031 235.367 15.248C234.898 15.793 234.664 16.6924 234.664 17.9463V23H233.205V13.3672H234.392L234.629 14.6855H234.699C234.998 14.2109 235.417 13.8447 235.956 13.5869C236.495 13.3232 237.096 13.1914 237.758 13.1914C238.918 13.1914 239.791 13.4727 240.377 14.0352C240.963 14.5918 241.256 15.4854 241.256 16.7158V23H239.797ZM252.146 13.3672V14.29L250.361 14.501C250.525 14.7061 250.672 14.9756 250.801 15.3096C250.93 15.6377 250.994 16.0098 250.994 16.4258C250.994 17.3691 250.672 18.1221 250.027 18.6846C249.383 19.2471 248.498 19.5283 247.373 19.5283C247.086 19.5283 246.816 19.5049 246.564 19.458C245.943 19.7861 245.633 20.1992 245.633 20.6973C245.633 20.9609 245.741 21.1572 245.958 21.2861C246.175 21.4092 246.547 21.4707 247.074 21.4707H248.779C249.822 21.4707 250.622 21.6904 251.179 22.1299C251.741 22.5693 252.022 23.208 252.022 24.0459C252.022 25.1123 251.595 25.9238 250.739 26.4805C249.884 27.043 248.636 27.3242 246.995 27.3242C245.735 27.3242 244.763 27.0898 244.077 26.6211C243.397 26.1523 243.058 25.4902 243.058 24.6348C243.058 24.0488 243.245 23.542 243.62 23.1143C243.995 22.6865 244.522 22.3965 245.202 22.2441C244.956 22.1328 244.748 21.96 244.578 21.7256C244.414 21.4912 244.332 21.2188 244.332 20.9082C244.332 20.5566 244.426 20.249 244.613 19.9854C244.801 19.7217 245.097 19.4668 245.501 19.2207C245.003 19.0156 244.596 18.667 244.279 18.1748C243.969 17.6826 243.813 17.1201 243.813 16.4873C243.813 15.4326 244.13 14.6211 244.763 14.0527C245.396 13.4785 246.292 13.1914 247.452 13.1914C247.956 13.1914 248.41 13.25 248.814 13.3672H252.146ZM244.464 24.6172C244.464 25.1387 244.684 25.5342 245.123 25.8037C245.562 26.0732 246.192 26.208 247.013 26.208C248.237 26.208 249.143 26.0234 249.729 25.6543C250.32 25.291 250.616 24.7959 250.616 24.1689C250.616 23.6475 250.455 23.2842 250.133 23.0791C249.811 22.8799 249.204 22.7803 248.313 22.7803H246.564C245.902 22.7803 245.387 22.9385 245.018 23.2549C244.648 23.5713 244.464 24.0254 244.464 24.6172ZM245.255 16.4521C245.255 17.126 245.445 17.6357 245.826 17.9814C246.207 18.3271 246.737 18.5 247.417 18.5C248.841 18.5 249.553 17.8086 249.553 16.4258C249.553 14.9785 248.832 14.2549 247.391 14.2549C246.705 14.2549 246.178 14.4395 245.809 14.8086C245.439 15.1777 245.255 15.7256 245.255 16.4521ZM253.912 22.0684C253.912 21.6758 254 21.3799 254.176 21.1807C254.357 20.9756 254.615 20.873 254.949 20.873C255.289 20.873 255.553 20.9756 255.74 21.1807C255.934 21.3799 256.03 21.6758 256.03 22.0684C256.03 22.4492 255.934 22.7422 255.74 22.9473C255.547 23.1523 255.283 23.2549 254.949 23.2549C254.65 23.2549 254.401 23.1641 254.202 22.9824C254.009 22.7949 253.912 22.4902 253.912 22.0684ZM253.912 14.3076C253.912 13.5166 254.258 13.1211 254.949 13.1211C255.67 13.1211 256.03 13.5166 256.03 14.3076C256.03 14.6885 255.934 14.9814 255.74 15.1865C255.547 15.3916 255.283 15.4941 254.949 15.4941C254.65 15.4941 254.401 15.4033 254.202 15.2217C254.009 15.0342 253.912 14.7295 253.912 14.3076ZM273.854 23H272.149L265.127 12.2158H265.057C265.15 13.4814 265.197 14.6416 265.197 15.6963V23H263.817V10.1504H265.505L272.51 20.8906H272.58C272.568 20.7324 272.542 20.2256 272.501 19.3701C272.46 18.5088 272.445 17.8936 272.457 17.5244V10.1504H273.854V23ZM285.482 18.1748C285.482 19.7451 285.087 20.9727 284.296 21.8574C283.505 22.7363 282.412 23.1758 281.018 23.1758C280.156 23.1758 279.392 22.9736 278.724 22.5693C278.056 22.165 277.54 21.585 277.177 20.8291C276.813 20.0732 276.632 19.1885 276.632 18.1748C276.632 16.6045 277.024 15.3828 277.81 14.5098C278.595 13.6309 279.685 13.1914 281.079 13.1914C282.427 13.1914 283.496 13.6396 284.287 14.5361C285.084 15.4326 285.482 16.6455 285.482 18.1748ZM278.144 18.1748C278.144 19.4053 278.39 20.3428 278.882 20.9873C279.374 21.6318 280.098 21.9541 281.053 21.9541C282.008 21.9541 282.731 21.6348 283.224 20.9961C283.722 20.3516 283.971 19.4111 283.971 18.1748C283.971 16.9502 283.722 16.0215 283.224 15.3887C282.731 14.75 282.002 14.4307 281.035 14.4307C280.08 14.4307 279.359 14.7441 278.873 15.3711C278.387 15.998 278.144 16.9326 278.144 18.1748ZM294.641 23V16.7686C294.641 15.9834 294.462 15.3975 294.104 15.0107C293.747 14.624 293.188 14.4307 292.426 14.4307C291.418 14.4307 290.68 14.7031 290.211 15.248C289.742 15.793 289.508 16.6924 289.508 17.9463V23H288.049V13.3672H289.235L289.473 14.6855H289.543C289.842 14.2109 290.261 13.8447 290.8 13.5869C291.339 13.3232 291.939 13.1914 292.602 13.1914C293.762 13.1914 294.635 13.4727 295.221 14.0352C295.807 14.5918 296.1 15.4854 296.1 16.7158V23H294.641ZM303.175 23.1758C301.751 23.1758 300.626 22.7422 299.8 21.875C298.979 21.0078 298.569 19.8037 298.569 18.2627C298.569 16.71 298.95 15.4766 299.712 14.5625C300.479 13.6484 301.508 13.1914 302.797 13.1914C304.004 13.1914 304.959 13.5898 305.662 14.3867C306.365 15.1777 306.717 16.2236 306.717 17.5244V18.4473H300.081C300.11 19.5781 300.395 20.4365 300.934 21.0225C301.479 21.6084 302.243 21.9014 303.228 21.9014C304.265 21.9014 305.29 21.6846 306.304 21.251V22.5518C305.788 22.7744 305.299 22.9326 304.836 23.0264C304.379 23.126 303.825 23.1758 303.175 23.1758ZM302.779 14.4131C302.006 14.4131 301.388 14.665 300.925 15.1689C300.468 15.6729 300.198 16.3701 300.116 17.2607H305.152C305.152 16.3408 304.947 15.6377 304.537 15.1514C304.127 14.6592 303.541 14.4131 302.779 14.4131Z" fill="black"/>
<defs>
<filter id="filter0_d" x="0" y="0" width="155" height="41" filterUnits="userSpaceOnUse" color-interpolation-filters="sRGB">
<feFlood flood-opacity="0" result="BackgroundImageFix"/>
<feColorMatrix in="SourceAlpha" type="matrix" values="0 0 0 0 0 0 0 0 0 0 0 0 0 0 0 0 0 0 127 0"/>
<feOffset dy="4"/>
<feGaussianBlur stdDeviation="2"/>
<feColorMatrix type="matrix" values="0 0 0 0 0 0 0 0 0 0 0 0 0 0 0 0 0 0 0.25 0"/>
<feBlend mode="normal" in2="BackgroundImageFix" result="effect1_dropShadow"/>
<feBlend mode="normal" in="SourceGraphic" in2="effect1_dropShadow" result="shape"/>
</filter>
<filter id="filter1_d" x="172" y="0" width="183" height="41" filterUnits="userSpaceOnUse" color-interpolation-filters="sRGB">
<feFlood flood-opacity="0" result="BackgroundImageFix"/>
<feColorMatrix in="SourceAlpha" type="matrix" values="0 0 0 0 0 0 0 0 0 0 0 0 0 0 0 0 0 0 127 0"/>
<feOffset dy="4"/>
<feGaussianBlur stdDeviation="2"/>
<feColorMatrix type="matrix" values="0 0 0 0 0 0 0 0 0 0 0 0 0 0 0 0 0 0 0.25 0"/>
<feBlend mode="normal" in2="BackgroundImageFix" result="effect1_dropShadow"/>
<feBlend mode="normal" in="SourceGraphic" in2="effect1_dropShadow" result="shape"/>
</filter>
</defs>
</svg>
