<svg width="163" height="23" viewBox="0 0 163 23" fill="none" xmlns="http://www.w3.org/2000/svg">
<g clip-path="url(#clip0)">
<path d="M22.967 8.86154C22.8877 8.61757 22.6769 8.43977 22.4231 8.40294L15.293 7.36682L12.1042 0.905864C11.9908 0.675865 11.7565 0.530273 11.5 0.530273C11.2435 0.530273 11.0093 0.675865 10.8958 0.905864L7.70689 7.36682L0.576923 8.40294C0.323161 8.43977 0.112253 8.61757 0.0330115 8.8615C-0.0462753 9.10547 0.0198495 9.37325 0.203534 9.55226L5.3627 14.5814L4.14496 21.6828C4.10157 21.9356 4.20552 22.191 4.41301 22.3418C4.53039 22.4271 4.66942 22.4705 4.80913 22.4705C4.9164 22.4705 5.02404 22.4449 5.12259 22.3931L11.5 19.0402L17.8771 22.393C18.1042 22.5124 18.3793 22.4925 18.5868 22.3418C18.7942 22.191 18.8982 21.9355 18.8549 21.6827L17.6367 14.5814L22.7965 9.55221C22.9801 9.37325 23.0463 9.10547 22.967 8.86154Z" fill="black"/>
</g>
<g clip-path="url(#clip1)">
<path d="M57.967 8.86154C57.8877 8.61757 57.6769 8.43977 57.4231 8.40294L50.293 7.36682L47.1042 0.905864C46.9908 0.675865 46.7565 0.530273 46.5 0.530273C46.2435 0.530273 46.0093 0.675865 45.8958 0.905864L42.7069 7.36682L35.5769 8.40294C35.3232 8.43977 35.1123 8.61757 35.033 8.8615C34.9537 9.10547 35.0198 9.37325 35.2035 9.55226L40.3627 14.5814L39.145 21.6828C39.1016 21.9356 39.2055 22.191 39.413 22.3418C39.5304 22.4271 39.6694 22.4705 39.8091 22.4705C39.9164 22.4705 40.024 22.4449 40.1226 22.3931L46.5 19.0402L52.8771 22.393C53.1042 22.5124 53.3793 22.4925 53.5868 22.3418C53.7942 22.191 53.8982 21.9355 53.8549 21.6827L52.6367 14.5814L57.7965 9.55221C57.9801 9.37325 58.0463 9.10547 57.967 8.86154Z" fill="black"/>
</g>
<g clip-path="url(#clip2)">
<path d="M92.967 8.86154C92.8877 8.61757 92.6769 8.43977 92.4231 8.40294L85.293 7.36682L82.1042 0.905864C81.9908 0.675865 81.7565 0.530273 81.5 0.530273C81.2435 0.530273 81.0093 0.675865 80.8958 0.905864L77.7069 7.36682L70.5769 8.40294C70.3232 8.43977 70.1123 8.61757 70.033 8.8615C69.9537 9.10547 70.0198 9.37325 70.2035 9.55226L75.3627 14.5814L74.145 21.6828C74.1016 21.9356 74.2055 22.191 74.413 22.3418C74.5304 22.4271 74.6694 22.4705 74.8091 22.4705C74.9164 22.4705 75.024 22.4449 75.1226 22.3931L81.5 19.0402L87.8771 22.393C88.1042 22.5124 88.3793 22.4925 88.5868 22.3418C88.7942 22.191 88.8982 21.9355 88.8549 21.6827L87.6367 14.5814L92.7965 9.55221C92.9801 9.37325 93.0463 9.10547 92.967 8.86154Z" fill="black"/>
</g>
<g clip-path="url(#clip3)">
<path d="M127.967 8.86154C127.888 8.61757 127.677 8.43977 127.423 8.40294L120.293 7.36682L117.104 0.905864C116.991 0.675865 116.756 0.530273 116.5 0.530273C116.244 0.530273 116.009 0.675865 115.896 0.905864L112.707 7.36682L105.577 8.40294C105.323 8.43977 105.112 8.61757 105.033 8.8615C104.954 9.10547 105.02 9.37325 105.204 9.55226L110.363 14.5814L109.145 21.6828C109.102 21.9356 109.206 22.191 109.413 22.3418C109.53 22.4271 109.669 22.4705 109.809 22.4705C109.916 22.4705 110.024 22.4449 110.123 22.3931L116.5 19.0402L122.877 22.393C123.104 22.5124 123.379 22.4925 123.587 22.3418C123.794 22.191 123.898 21.9355 123.855 21.6827L122.637 14.5814L127.796 9.55221C127.98 9.37325 128.046 9.10547 127.967 8.86154Z" fill="black"/>
<g clip-path="url(#clip4)">
<path d="M127.967 8.86154C127.888 8.61757 127.677 8.43977 127.423 8.40294L120.293 7.36682L117.104 0.905864C116.991 0.675865 116.756 0.530273 116.5 0.530273C116.244 0.530273 116.009 0.675865 115.896 0.905864L112.707 7.36682L105.577 8.40294C105.323 8.43977 105.112 8.61757 105.033 8.8615C104.954 9.10547 105.02 9.37325 105.204 9.55226L110.363 14.5814L109.145 21.6828C109.102 21.9356 109.206 22.191 109.413 22.3418C109.53 22.4271 109.669 22.4705 109.809 22.4705C109.916 22.4705 110.024 22.4449 110.123 22.3931L116.5 19.0402L122.877 22.393C123.104 22.5124 123.379 22.4925 123.587 22.3418C123.794 22.191 123.898 21.9355 123.855 21.6827L122.637 14.5814L127.796 9.55221C127.98 9.37325 128.046 9.10547 127.967 8.86154Z" fill="black"/>
</g>
</g>
<g clip-path="url(#clip5)">
<path d="M162.967 8.86154C162.888 8.61757 162.677 8.43977 162.423 8.40294L155.293 7.36682L152.104 0.905864C151.991 0.675865 151.756 0.530273 151.5 0.530273C151.244 0.530273 151.009 0.675865 150.896 0.905864L147.707 7.36682L140.577 8.40294C140.323 8.43977 140.112 8.61757 140.033 8.8615C139.954 9.10547 140.02 9.37325 140.204 9.55226L145.363 14.5814L144.145 21.6828C144.102 21.9356 144.206 22.191 144.413 22.3418C144.53 22.4271 144.669 22.4705 144.809 22.4705C144.916 22.4705 145.024 22.4449 145.123 22.3931L151.5 19.0402L157.877 22.393C158.104 22.5124 158.379 22.4925 158.587 22.3418C158.794 22.191 158.898 21.9355 158.855 21.6827L157.637 14.5814L162.796 9.55221C162.98 9.37325 163.046 9.10547 162.967 8.86154Z" fill="black"/>
</g>
<defs>
<clipPath id="clip0">
<rect width="23" height="23" fill="white"/>
</clipPath>
<clipPath id="clip1">
<rect width="23" height="23" fill="white" transform="translate(35)"/>
</clipPath>
<clipPath id="clip2">
<rect width="23" height="23" fill="white" transform="translate(70)"/>
</clipPath>
<clipPath id="clip3">
<rect width="23" height="23" fill="white" transform="translate(105)"/>
</clipPath>
<clipPath id="clip4">
<rect width="23" height="23" fill="white" transform="translate(105)"/>
</clipPath>
<clipPath id="clip5">
<rect width="23" height="23" fill="white" transform="translate(140)"/>
</clipPath>
</defs>
</svg>
