<svg width="24" height="30" viewBox="0 0 24 30" fill="none" xmlns="http://www.w3.org/2000/svg">
<path d="M23.9255 6.56808L23.2767 4.62324C23.0297 3.88251 22.3389 3.38481 21.5583 3.38481H16.1054V1.60946C16.1054 0.722114 15.3839 0 14.4968 0H9.5032C8.61631 0 7.89464 0.722114 7.89464 1.60946V3.38481H2.4419C1.66105 3.38481 0.970324 3.88251 0.723267 4.62324L0.0744625 6.56808C-0.0732784 7.01085 0.00160091 7.50116 0.27444 7.87981C0.547278 8.25847 0.988707 8.48468 1.45547 8.48468H2.13364L3.6263 26.9424C3.73727 28.312 4.89947 29.385 6.27263 29.385H18.0303C19.4032 29.385 20.5656 28.312 20.6764 26.9422L22.169 8.48468H22.5445C23.0113 8.48468 23.4527 8.25847 23.7256 7.88004C23.9984 7.50138 24.0733 7.01085 23.9255 6.56808V6.56808ZM9.61642 1.72178H14.3836V3.38481H9.61642V1.72178ZM18.9602 26.8034C18.9212 27.2857 18.5127 27.6632 18.0303 27.6632H6.27263C5.79017 27.6632 5.3817 27.2857 5.34269 26.8034L3.86102 8.48468H20.4416L18.9602 26.8034ZM1.82471 6.7629L2.35671 5.16802C2.36882 5.13125 2.40312 5.10659 2.4419 5.10659H21.5583C21.5971 5.10659 21.6312 5.13125 21.6435 5.16802L22.1755 6.7629H1.82471Z" fill="black"/>
<path d="M16.2143 26.7426C16.2295 26.7434 16.2446 26.7437 16.2598 26.7437C16.7147 26.7437 17.0949 26.3872 17.1187 25.9276L17.9271 10.4088C17.9518 9.93394 17.5868 9.52883 17.1122 9.50417C16.6362 9.47884 16.2325 9.84427 16.2076 10.3191L15.3994 25.8379C15.3747 26.3128 15.7395 26.7179 16.2143 26.7426V26.7426Z" fill="black"/>
<path d="M6.91961 25.9295C6.94472 26.3884 7.32449 26.7435 7.77848 26.7435C7.79417 26.7435 7.81031 26.7431 7.82623 26.7422C8.30084 26.7164 8.6647 26.3106 8.63892 25.8358L7.79215 10.3169C7.76637 9.84209 7.36059 9.47824 6.88575 9.50424C6.41114 9.53002 6.04729 9.93581 6.07307 10.4106L6.91961 25.9295Z" fill="black"/>
<path d="M12.0096 26.7436C12.4851 26.7436 12.8705 26.3582 12.8705 25.8827V10.3638C12.8705 9.88831 12.4851 9.50293 12.0096 9.50293C11.5341 9.50293 11.1487 9.88831 11.1487 10.3638V25.8827C11.1487 26.3582 11.5341 26.7436 12.0096 26.7436Z" fill="black"/>
</svg>
