<svg width="39" height="39" viewBox="0 0 39 39" fill="none" xmlns="http://www.w3.org/2000/svg">
<g filter="url(#filter0_d)">
<circle cx="19.5" cy="15.5" r="15.5" fill="white"/>
</g>
<path d="M15.7129 22H13.9917V15.0859C13.9917 14.2607 14.0112 13.6064 14.0503 13.123C13.938 13.2402 13.7988 13.3696 13.6328 13.5112C13.4717 13.6528 12.9248 14.1021 11.9922 14.8589L11.1279 13.7676L14.2773 11.292H15.7129V22ZM26.4868 22H19.2285V20.6963L21.9897 17.9204C22.8052 17.0854 23.3447 16.4946 23.6084 16.1479C23.877 15.7964 24.0723 15.4668 24.1943 15.1592C24.3164 14.8516 24.3774 14.522 24.3774 14.1704C24.3774 13.687 24.231 13.3062 23.938 13.0278C23.6499 12.7495 23.2495 12.6104 22.7368 12.6104C22.3267 12.6104 21.9287 12.686 21.543 12.8374C21.1621 12.9888 20.7202 13.2622 20.2173 13.6577L19.2871 12.5225C19.8828 12.0195 20.4614 11.6631 21.0229 11.4531C21.5845 11.2432 22.1826 11.1382 22.8174 11.1382C23.8135 11.1382 24.6118 11.3994 25.2124 11.9219C25.813 12.4395 26.1133 13.1377 26.1133 14.0166C26.1133 14.5 26.0254 14.959 25.8496 15.3936C25.6787 15.8281 25.4126 16.2773 25.0513 16.7412C24.6948 17.2002 24.0991 17.8228 23.2642 18.6089L21.4038 20.4106V20.4839H26.4868V22Z" fill="black"/>
<defs>
<filter id="filter0_d" x="0" y="0" width="39" height="39" filterUnits="userSpaceOnUse" color-interpolation-filters="sRGB">
<feFlood flood-opacity="0" result="BackgroundImageFix"/>
<feColorMatrix in="SourceAlpha" type="matrix" values="0 0 0 0 0 0 0 0 0 0 0 0 0 0 0 0 0 0 127 0"/>
<feOffset dy="4"/>
<feGaussianBlur stdDeviation="2"/>
<feColorMatrix type="matrix" values="0 0 0 0 0 0 0 0 0 0 0 0 0 0 0 0 0 0 0.25 0"/>
<feBlend mode="normal" in2="BackgroundImageFix" result="effect1_dropShadow"/>
<feBlend mode="normal" in="SourceGraphic" in2="effect1_dropShadow" result="shape"/>
</filter>
</defs>
</svg>
