<svg width="429" height="44" viewBox="0 0 429 44" fill="none" xmlns="http://www.w3.org/2000/svg">
<g filter="url(#filter0_d)">
<rect x="4" width="421" height="36" rx="5" fill="#3250BD"/>
</g>
<path d="M172.657 24L171.88 21.4512H167.977L167.2 24H164.754L168.533 13.248H171.309L175.103 24H172.657ZM171.338 19.5469C170.621 17.2373 170.215 15.9312 170.123 15.6284C170.035 15.3257 169.971 15.0864 169.932 14.9106C169.771 15.5356 169.31 17.0811 168.548 19.5469H171.338ZM185.342 18.5435C185.342 20.3062 184.839 21.6562 183.834 22.5938C182.833 23.5312 181.385 24 179.49 24H176.458V13.292H179.82C181.568 13.292 182.925 13.7534 183.892 14.6763C184.859 15.5991 185.342 16.8882 185.342 18.5435ZM182.984 18.6021C182.984 16.3022 181.968 15.1523 179.937 15.1523H178.729V22.125H179.703C181.89 22.125 182.984 20.9507 182.984 18.6021ZM196.446 18.5435C196.446 20.3062 195.943 21.6562 194.937 22.5938C193.936 23.5312 192.488 24 190.594 24H187.562V13.292H190.923C192.671 13.292 194.029 13.7534 194.996 14.6763C195.962 15.5991 196.446 16.8882 196.446 18.5435ZM194.087 18.6021C194.087 16.3022 193.072 15.1523 191.041 15.1523H189.832V22.125H190.806C192.994 22.125 194.087 20.9507 194.087 18.6021ZM206.692 24H204.422V15.1816H201.514V13.292H209.6V15.1816H206.692V24ZM220.967 18.6313C220.967 20.4038 220.528 21.7661 219.649 22.7183C218.77 23.6704 217.51 24.1465 215.87 24.1465C214.229 24.1465 212.969 23.6704 212.09 22.7183C211.211 21.7661 210.772 20.3989 210.772 18.6167C210.772 16.8345 211.211 15.4746 212.09 14.5371C212.974 13.5947 214.239 13.1235 215.884 13.1235C217.53 13.1235 218.787 13.5972 219.656 14.5444C220.53 15.4917 220.967 16.854 220.967 18.6313ZM213.152 18.6313C213.152 19.8276 213.379 20.7285 213.834 21.334C214.288 21.9395 214.966 22.2422 215.87 22.2422C217.681 22.2422 218.587 21.0386 218.587 18.6313C218.587 16.2192 217.686 15.0132 215.884 15.0132C214.981 15.0132 214.3 15.3184 213.841 15.9287C213.382 16.5342 213.152 17.4351 213.152 18.6313ZM231.631 15.0278C230.777 15.0278 230.115 15.3501 229.646 15.9946C229.178 16.6343 228.943 17.5278 228.943 18.6753C228.943 21.063 229.839 22.2568 231.631 22.2568C232.383 22.2568 233.294 22.0688 234.363 21.6929V23.5972C233.484 23.9634 232.503 24.1465 231.419 24.1465C229.861 24.1465 228.67 23.6753 227.845 22.7329C227.02 21.7856 226.607 20.4282 226.607 18.6606C226.607 17.5474 226.81 16.5732 227.215 15.7383C227.62 14.8984 228.201 14.2563 228.958 13.812C229.72 13.3628 230.611 13.1382 231.631 13.1382C232.671 13.1382 233.716 13.3896 234.766 13.8926L234.034 15.7383C233.633 15.5479 233.23 15.3818 232.825 15.2402C232.42 15.0986 232.022 15.0278 231.631 15.0278ZM243.204 24L242.427 21.4512H238.523L237.747 24H235.301L239.08 13.248H241.856L245.65 24H243.204ZM241.885 19.5469C241.167 17.2373 240.762 15.9312 240.669 15.6284C240.582 15.3257 240.518 15.0864 240.479 14.9106C240.318 15.5356 239.856 17.0811 239.095 19.5469H241.885ZM249.275 18.0454H250.008C250.726 18.0454 251.255 17.9258 251.597 17.6865C251.939 17.4473 252.11 17.0713 252.11 16.5586C252.11 16.0508 251.934 15.6895 251.583 15.4746C251.236 15.2598 250.696 15.1523 249.964 15.1523H249.275V18.0454ZM249.275 19.8911V24H247.005V13.292H250.125C251.58 13.292 252.657 13.5581 253.355 14.0903C254.053 14.6177 254.402 15.4209 254.402 16.5C254.402 17.1299 254.229 17.6914 253.882 18.1846C253.536 18.6729 253.045 19.0562 252.41 19.3345C254.021 21.7417 255.071 23.2969 255.56 24H253.04L250.484 19.8911H249.275ZM261.038 24H258.768V15.1816H255.86V13.292H263.946V15.1816H261.038V24Z" fill="white"/>
<defs>
<filter id="filter0_d" x="0" y="0" width="429" height="44" filterUnits="userSpaceOnUse" color-interpolation-filters="sRGB">
<feFlood flood-opacity="0" result="BackgroundImageFix"/>
<feColorMatrix in="SourceAlpha" type="matrix" values="0 0 0 0 0 0 0 0 0 0 0 0 0 0 0 0 0 0 127 0"/>
<feOffset dy="4"/>
<feGaussianBlur stdDeviation="2"/>
<feColorMatrix type="matrix" values="0 0 0 0 0 0 0 0 0 0 0 0 0 0 0 0 0 0 0.25 0"/>
<feBlend mode="normal" in2="BackgroundImageFix" result="effect1_dropShadow"/>
<feBlend mode="normal" in="SourceGraphic" in2="effect1_dropShadow" result="shape"/>
</filter>
</defs>
</svg>
