<svg width="38" height="38" viewBox="0 0 38 38" fill="none" xmlns="http://www.w3.org/2000/svg">
<path d="M19.0001 4.39062C11.168 4.39062 4.7507 10.5598 4.35091 18.2939C4.33757 18.5183 4.33032 18.7438 4.33032 18.9714V19.0604C4.33032 19.0717 4.33032 19.083 4.33061 19.0943C4.397 27.1271 10.952 33.6412 19.0001 33.6412C27.0482 33.6412 33.6032 27.1271 33.6696 19.0943C33.6699 19.083 33.6699 19.0717 33.6699 19.0604C33.6699 19.0456 33.6699 19.0306 33.6699 19.0158C33.6699 19.001 33.6699 18.9862 33.6699 18.9711C33.6699 18.9598 33.6699 18.9485 33.6696 18.9372C33.6032 10.9045 27.0482 4.39062 19.0001 4.39062ZM19.0001 31.4016C12.1613 31.4016 6.59428 25.8491 6.56993 19.0158C6.57051 18.8212 6.57631 18.6276 6.58588 18.4351C6.86449 13.6416 10.852 9.82715 15.7139 9.82715C20.7561 9.82715 24.8582 13.9292 24.8582 18.9714V19.0604C24.8582 22.3608 22.1733 25.0458 18.8728 25.0458C15.5727 25.0458 12.8875 22.3608 12.8875 19.0604V18.9714C12.8875 17.532 14.0585 16.3607 15.4982 16.3607C16.9377 16.3607 18.1086 17.532 18.1086 18.9714C18.1086 19.5898 18.6099 20.0911 19.2283 20.0911C19.847 20.0911 20.3482 19.5898 20.3482 18.9714C20.3482 16.2969 18.1724 14.1211 15.4982 14.1211C12.8237 14.1211 10.6479 16.2969 10.6479 18.9714V19.0604C10.6479 23.5956 14.3377 27.2854 18.8728 27.2854C23.4083 27.2854 27.0978 23.5956 27.0978 19.0604V18.9714C27.0978 12.6941 21.9912 7.58754 15.7139 7.58754C15.0883 7.58754 14.4742 7.63914 13.8755 7.73656C15.4388 7.02626 17.1739 6.63023 19.0001 6.63023C25.839 6.63023 31.406 12.1824 31.4303 19.0158C31.406 25.8491 25.839 31.4016 19.0001 31.4016Z" fill="black"/>
<path d="M38 18.9568C38 18.944 37.9997 18.9316 37.9994 18.9191C37.9594 13.9021 35.9871 9.19124 32.435 5.63918C28.8465 2.05058 24.075 0.0742188 19 0.0742188C13.925 0.0742188 9.15355 2.05058 5.56496 5.63918C2.01289 9.19124 0.0405884 13.9021 0.000579834 18.9191C0.000289917 18.9316 0 18.944 0 18.9568V19.0742C0 19.0867 0.000289917 19.0992 0.000579834 19.1116C0.0405884 24.1289 2.01289 28.8398 5.56496 32.3918C9.15355 35.9804 13.925 37.9568 19 37.9568C24.075 37.9568 28.8465 35.9804 32.435 32.3918C35.9871 28.8398 37.9594 24.1289 37.9994 19.1116C37.9997 19.0992 38 19.0867 38 19.0742C38 19.0548 38 19.0351 38 19.0154C38 18.9959 38 18.9762 38 18.9568ZM19 35.7169C9.77803 35.7169 2.27179 28.2301 2.2399 19.0154C2.27179 9.80093 9.77803 2.31383 19 2.31383C28.222 2.31383 35.7282 9.80093 35.7601 19.0154C35.7282 28.2301 28.222 35.7169 19 35.7169Z" fill="black"/>
</svg>
