<svg width="145" height="39" viewBox="0 0 145 39" fill="none" xmlns="http://www.w3.org/2000/svg">
<g filter="url(#filter0_d)">
<rect x="4" width="137" height="31" rx="3" fill="white"/>
</g>
<path d="M19.187 16.5435C19.187 18.311 18.6963 19.6636 17.7148 20.6011C16.7334 21.5337 15.3198 22 13.4741 22H10.4785V11.292H13.7891C15.4932 11.292 16.8188 11.751 17.7661 12.6689C18.7134 13.5869 19.187 14.8784 19.187 16.5435ZM17.3413 16.6021C17.3413 14.0386 16.1426 12.7568 13.7451 12.7568H12.229V20.5278H13.4741C16.0522 20.5278 17.3413 19.2192 17.3413 16.6021ZM28.4961 17.9351C28.4961 19.2583 28.1567 20.291 27.478 21.0332C26.7993 21.7754 25.8545 22.1465 24.6436 22.1465C23.8867 22.1465 23.2178 21.9756 22.6367 21.6338C22.0557 21.292 21.6089 20.8013 21.2964 20.1616C20.9839 19.522 20.8276 18.7798 20.8276 17.9351C20.8276 16.6216 21.1646 15.5962 21.8384 14.8589C22.5122 14.1216 23.4619 13.7529 24.6875 13.7529C25.8594 13.7529 26.7871 14.1313 27.4707 14.8882C28.1543 15.6401 28.4961 16.6558 28.4961 17.9351ZM22.6001 17.9351C22.6001 19.8052 23.291 20.7402 24.6729 20.7402C26.04 20.7402 26.7236 19.8052 26.7236 17.9351C26.7236 16.0845 26.0352 15.1592 24.6582 15.1592C23.9355 15.1592 23.4106 15.3984 23.0835 15.877C22.7612 16.3555 22.6001 17.0415 22.6001 17.9351ZM36.1938 22L35.9521 20.938H35.8643C35.625 21.314 35.2832 21.6094 34.8389 21.8242C34.3994 22.0391 33.8965 22.1465 33.3301 22.1465C32.3486 22.1465 31.6162 21.9023 31.1328 21.4141C30.6494 20.9258 30.4077 20.186 30.4077 19.1948V13.8994H32.1436V18.8945C32.1436 19.5146 32.2705 19.981 32.5244 20.2935C32.7783 20.6011 33.1763 20.7549 33.7183 20.7549C34.4409 20.7549 34.9707 20.54 35.3076 20.1104C35.6494 19.6758 35.8203 18.9507 35.8203 17.9351V13.8994H37.5488V22H36.1938ZM44.1406 13.7529C45.1514 13.7529 45.9375 14.1191 46.499 14.8516C47.0654 15.584 47.3486 16.6118 47.3486 17.9351C47.3486 19.2632 47.063 20.2983 46.4917 21.0405C45.9204 21.7778 45.127 22.1465 44.1113 22.1465C43.0859 22.1465 42.29 21.7778 41.7236 21.0405H41.6064L41.2915 22H40.0024V10.6035H41.7236V13.3135C41.7236 13.5137 41.7139 13.8115 41.6943 14.207C41.6748 14.6025 41.6602 14.854 41.6504 14.9614H41.7236C42.2705 14.1558 43.0762 13.7529 44.1406 13.7529ZM43.6938 15.1592C43.0005 15.1592 42.5 15.3643 42.1924 15.7744C41.8896 16.1797 41.7334 16.8608 41.7236 17.8179V17.9351C41.7236 18.9214 41.8799 19.6367 42.1924 20.0811C42.5049 20.5205 43.0151 20.7402 43.7231 20.7402C44.3335 20.7402 44.7949 20.4985 45.1074 20.0151C45.4248 19.5317 45.5835 18.8335 45.5835 17.9204C45.5835 16.0796 44.9536 15.1592 43.6938 15.1592ZM51.0693 22H49.3481V10.6035H51.0693V22ZM57.0752 22.1465C55.8154 22.1465 54.8291 21.7803 54.1162 21.0479C53.4082 20.3105 53.0542 19.2974 53.0542 18.0083C53.0542 16.6851 53.3838 15.645 54.043 14.8882C54.7021 14.1313 55.6079 13.7529 56.7603 13.7529C57.8296 13.7529 58.6743 14.0776 59.2944 14.7271C59.9146 15.3765 60.2246 16.27 60.2246 17.4077V18.3379H54.8267C54.8511 19.124 55.0635 19.7295 55.4639 20.1543C55.8643 20.5742 56.4282 20.7842 57.1558 20.7842C57.6343 20.7842 58.0786 20.7402 58.4888 20.6523C58.9038 20.5596 59.3481 20.4082 59.8218 20.1982V21.5972C59.4019 21.7974 58.9771 21.939 58.5474 22.022C58.1177 22.105 57.627 22.1465 57.0752 22.1465ZM56.7603 15.0566C56.2134 15.0566 55.7739 15.23 55.4419 15.5767C55.1147 15.9233 54.9194 16.4287 54.856 17.0928H58.5327C58.5229 16.4238 58.3618 15.9185 58.0493 15.5767C57.7368 15.23 57.3071 15.0566 56.7603 15.0566ZM61.4771 18.7114V17.2466H65.2417V18.7114H61.4771ZM70.2808 22.1465C69.0552 22.1465 68.1226 21.79 67.4829 21.0771C66.8481 20.3594 66.5308 19.3315 66.5308 17.9937C66.5308 16.6313 66.8628 15.584 67.5269 14.8516C68.1958 14.1191 69.1602 13.7529 70.4199 13.7529C71.2744 13.7529 72.0435 13.9116 72.7271 14.229L72.207 15.6133C71.4795 15.3301 70.8789 15.1885 70.4053 15.1885C69.0039 15.1885 68.3032 16.1187 68.3032 17.979C68.3032 18.8872 68.4766 19.5708 68.8232 20.0298C69.1748 20.4839 69.6875 20.7109 70.3613 20.7109C71.1279 20.7109 71.853 20.5205 72.5366 20.1396V21.6411C72.229 21.8218 71.8994 21.9512 71.5479 22.0293C71.2012 22.1074 70.7788 22.1465 70.2808 22.1465ZM81.5674 22H79.8389V17.0195C79.8389 16.3945 79.7119 15.9282 79.458 15.6206C79.209 15.313 78.811 15.1592 78.2642 15.1592C77.5415 15.1592 77.0093 15.3765 76.6675 15.811C76.3306 16.2407 76.1621 16.9634 76.1621 17.979V22H74.4409V10.6035H76.1621V13.4966C76.1621 13.9604 76.1328 14.4561 76.0742 14.9834H76.1841C76.4185 14.5928 76.7432 14.29 77.1582 14.0752C77.5781 13.8604 78.0664 13.7529 78.623 13.7529C80.5859 13.7529 81.5674 14.7417 81.5674 16.7192V22ZM91.1475 17.9351C91.1475 19.2583 90.8081 20.291 90.1294 21.0332C89.4507 21.7754 88.5059 22.1465 87.2949 22.1465C86.5381 22.1465 85.8691 21.9756 85.2881 21.6338C84.707 21.292 84.2603 20.8013 83.9478 20.1616C83.6353 19.522 83.479 18.7798 83.479 17.9351C83.479 16.6216 83.8159 15.5962 84.4897 14.8589C85.1636 14.1216 86.1133 13.7529 87.3389 13.7529C88.5107 13.7529 89.4385 14.1313 90.1221 14.8882C90.8057 15.6401 91.1475 16.6558 91.1475 17.9351ZM85.2515 17.9351C85.2515 19.8052 85.9424 20.7402 87.3242 20.7402C88.6914 20.7402 89.375 19.8052 89.375 17.9351C89.375 16.0845 88.6865 15.1592 87.3096 15.1592C86.5869 15.1592 86.062 15.3984 85.7349 15.877C85.4126 16.3555 85.2515 17.0415 85.2515 17.9351ZM96.3989 22.1465C95.1733 22.1465 94.2407 21.79 93.6011 21.0771C92.9663 20.3594 92.6489 19.3315 92.6489 17.9937C92.6489 16.6313 92.981 15.584 93.645 14.8516C94.314 14.1191 95.2783 13.7529 96.5381 13.7529C97.3926 13.7529 98.1616 13.9116 98.8452 14.229L98.3252 15.6133C97.5977 15.3301 96.9971 15.1885 96.5234 15.1885C95.1221 15.1885 94.4214 16.1187 94.4214 17.979C94.4214 18.8872 94.5947 19.5708 94.9414 20.0298C95.293 20.4839 95.8057 20.7109 96.4795 20.7109C97.2461 20.7109 97.9712 20.5205 98.6548 20.1396V21.6411C98.3472 21.8218 98.0176 21.9512 97.666 22.0293C97.3193 22.1074 96.897 22.1465 96.3989 22.1465ZM107.744 17.9351C107.744 19.2583 107.405 20.291 106.726 21.0332C106.047 21.7754 105.103 22.1465 103.892 22.1465C103.135 22.1465 102.466 21.9756 101.885 21.6338C101.304 21.292 100.857 20.8013 100.544 20.1616C100.232 19.522 100.076 18.7798 100.076 17.9351C100.076 16.6216 100.413 15.5962 101.086 14.8589C101.76 14.1216 102.71 13.7529 103.936 13.7529C105.107 13.7529 106.035 14.1313 106.719 14.8882C107.402 15.6401 107.744 16.6558 107.744 17.9351ZM101.848 17.9351C101.848 19.8052 102.539 20.7402 103.921 20.7402C105.288 20.7402 105.972 19.8052 105.972 17.9351C105.972 16.0845 105.283 15.1592 103.906 15.1592C103.184 15.1592 102.659 15.3984 102.332 15.877C102.009 16.3555 101.848 17.0415 101.848 17.9351ZM111.45 22H109.729V10.6035H111.45V22ZM118.987 22L118.643 20.8721H118.584C118.193 21.3652 117.8 21.7021 117.405 21.8828C117.009 22.0586 116.501 22.1465 115.881 22.1465C115.085 22.1465 114.463 21.9316 114.014 21.502C113.569 21.0723 113.347 20.4644 113.347 19.6782C113.347 18.8433 113.657 18.2134 114.277 17.7886C114.897 17.3638 115.842 17.1318 117.112 17.0928L118.511 17.0488V16.6167C118.511 16.0991 118.389 15.7134 118.145 15.4595C117.905 15.2007 117.532 15.0713 117.024 15.0713C116.609 15.0713 116.211 15.1323 115.83 15.2544C115.449 15.3765 115.083 15.5205 114.731 15.6865L114.175 14.4561C114.614 14.2266 115.095 14.0532 115.618 13.936C116.14 13.814 116.633 13.7529 117.097 13.7529C118.127 13.7529 118.904 13.9775 119.426 14.4268C119.954 14.876 120.217 15.5815 120.217 16.5435V22H118.987ZM116.423 20.8281C117.048 20.8281 117.549 20.6548 117.925 20.3081C118.306 19.9565 118.496 19.4658 118.496 18.8359V18.1328L117.456 18.1768C116.646 18.2061 116.055 18.3428 115.684 18.5869C115.317 18.8262 115.134 19.1948 115.134 19.6929C115.134 20.0542 115.242 20.335 115.457 20.5352C115.671 20.7305 115.994 20.8281 116.423 20.8281ZM125.637 20.7549C126.057 20.7549 126.477 20.689 126.897 20.5571V21.8535C126.707 21.9365 126.46 22.0049 126.157 22.0586C125.859 22.1172 125.549 22.1465 125.227 22.1465C123.596 22.1465 122.781 21.2871 122.781 19.5684V15.2031H121.675V14.4414L122.861 13.8115L123.447 12.0977H124.509V13.8994H126.816V15.2031H124.509V19.5391C124.509 19.9541 124.612 20.2617 124.817 20.4619C125.027 20.6572 125.3 20.7549 125.637 20.7549ZM132.061 22.1465C130.801 22.1465 129.814 21.7803 129.102 21.0479C128.394 20.3105 128.04 19.2974 128.04 18.0083C128.04 16.6851 128.369 15.645 129.028 14.8882C129.688 14.1313 130.593 13.7529 131.746 13.7529C132.815 13.7529 133.66 14.0776 134.28 14.7271C134.9 15.3765 135.21 16.27 135.21 17.4077V18.3379H129.812C129.836 19.124 130.049 19.7295 130.449 20.1543C130.85 20.5742 131.414 20.7842 132.141 20.7842C132.62 20.7842 133.064 20.7402 133.474 20.6523C133.889 20.5596 134.333 20.4082 134.807 20.1982V21.5972C134.387 21.7974 133.962 21.939 133.533 22.022C133.103 22.105 132.612 22.1465 132.061 22.1465ZM131.746 15.0566C131.199 15.0566 130.759 15.23 130.427 15.5767C130.1 15.9233 129.905 16.4287 129.841 17.0928H133.518C133.508 16.4238 133.347 15.9185 133.035 15.5767C132.722 15.23 132.292 15.0566 131.746 15.0566Z" fill="black"/>
<defs>
<filter id="filter0_d" x="0" y="0" width="145" height="39" filterUnits="userSpaceOnUse" color-interpolation-filters="sRGB">
<feFlood flood-opacity="0" result="BackgroundImageFix"/>
<feColorMatrix in="SourceAlpha" type="matrix" values="0 0 0 0 0 0 0 0 0 0 0 0 0 0 0 0 0 0 127 0"/>
<feOffset dy="4"/>
<feGaussianBlur stdDeviation="2"/>
<feColorMatrix type="matrix" values="0 0 0 0 0.35 0 0 0 0 0.35 0 0 0 0 0.35 0 0 0 0.25 0"/>
<feBlend mode="normal" in2="BackgroundImageFix" result="effect1_dropShadow"/>
<feBlend mode="normal" in="SourceGraphic" in2="effect1_dropShadow" result="shape"/>
</filter>
</defs>
</svg>
