<svg width="67" height="39" viewBox="0 0 67 39" fill="none" xmlns="http://www.w3.org/2000/svg">
<g filter="url(#filter0_d)">
<rect x="4" width="59" height="31" rx="3" fill="white"/>
</g>
<path d="M24.3345 22H22.1885L16.9224 13.4673H16.8638L16.9004 13.9434C16.9688 14.8516 17.0029 15.6816 17.0029 16.4336V22H15.4136V11.292H17.5376L22.7891 19.7808H22.833C22.8232 19.6685 22.8037 19.2607 22.7744 18.5576C22.7451 17.8496 22.7305 17.2979 22.7305 16.9023V11.292H24.3345V22ZM34.1636 17.9351C34.1636 19.2583 33.8242 20.291 33.1455 21.0332C32.4668 21.7754 31.522 22.1465 30.311 22.1465C29.5542 22.1465 28.8853 21.9756 28.3042 21.6338C27.7231 21.292 27.2764 20.8013 26.9639 20.1616C26.6514 19.522 26.4951 18.7798 26.4951 17.9351C26.4951 16.6216 26.832 15.5962 27.5059 14.8589C28.1797 14.1216 29.1294 13.7529 30.355 13.7529C31.5269 13.7529 32.4546 14.1313 33.1382 14.8882C33.8218 15.6401 34.1636 16.6558 34.1636 17.9351ZM28.2676 17.9351C28.2676 19.8052 28.9585 20.7402 30.3403 20.7402C31.7075 20.7402 32.3911 19.8052 32.3911 17.9351C32.3911 16.0845 31.7026 15.1592 30.3257 15.1592C29.603 15.1592 29.0781 15.3984 28.751 15.877C28.4287 16.3555 28.2676 17.0415 28.2676 17.9351ZM43.2749 22H41.5464V17.0195C41.5464 16.3945 41.4194 15.9282 41.1655 15.6206C40.9165 15.313 40.5186 15.1592 39.9717 15.1592C39.2441 15.1592 38.7119 15.374 38.375 15.8037C38.0381 16.2334 37.8696 16.9536 37.8696 17.9644V22H36.1484V13.8994H37.4961L37.7378 14.9614H37.8257C38.0698 14.5757 38.4165 14.2778 38.8657 14.0679C39.3149 13.8579 39.813 13.7529 40.3599 13.7529C42.3032 13.7529 43.2749 14.7417 43.2749 16.7192V22ZM49.2075 22.1465C47.9478 22.1465 46.9614 21.7803 46.2485 21.0479C45.5405 20.3105 45.1865 19.2974 45.1865 18.0083C45.1865 16.6851 45.5161 15.645 46.1753 14.8882C46.8345 14.1313 47.7402 13.7529 48.8926 13.7529C49.9619 13.7529 50.8066 14.0776 51.4268 14.7271C52.0469 15.3765 52.3569 16.27 52.3569 17.4077V18.3379H46.959C46.9834 19.124 47.1958 19.7295 47.5962 20.1543C47.9966 20.5742 48.5605 20.7842 49.2881 20.7842C49.7666 20.7842 50.2109 20.7402 50.6211 20.6523C51.0361 20.5596 51.4805 20.4082 51.9541 20.1982V21.5972C51.5342 21.7974 51.1094 21.939 50.6797 22.022C50.25 22.105 49.7593 22.1465 49.2075 22.1465ZM48.8926 15.0566C48.3457 15.0566 47.9062 15.23 47.5742 15.5767C47.2471 15.9233 47.0518 16.4287 46.9883 17.0928H50.665C50.6553 16.4238 50.4941 15.9185 50.1816 15.5767C49.8691 15.23 49.4395 15.0566 48.8926 15.0566Z" fill="black"/>
<defs>
<filter id="filter0_d" x="0" y="0" width="67" height="39" filterUnits="userSpaceOnUse" color-interpolation-filters="sRGB">
<feFlood flood-opacity="0" result="BackgroundImageFix"/>
<feColorMatrix in="SourceAlpha" type="matrix" values="0 0 0 0 0 0 0 0 0 0 0 0 0 0 0 0 0 0 127 0"/>
<feOffset dy="4"/>
<feGaussianBlur stdDeviation="2"/>
<feColorMatrix type="matrix" values="0 0 0 0 0.35 0 0 0 0 0.35 0 0 0 0 0.35 0 0 0 0.25 0"/>
<feBlend mode="normal" in2="BackgroundImageFix" result="effect1_dropShadow"/>
<feBlend mode="normal" in="SourceGraphic" in2="effect1_dropShadow" result="shape"/>
</filter>
</defs>
</svg>
