<svg width="97" height="39" viewBox="0 0 97 39" fill="none" xmlns="http://www.w3.org/2000/svg">
<g filter="url(#filter0_d)">
<rect x="4" width="89" height="31" rx="3" fill="white"/>
</g>
<path d="M18.5879 19.0923C18.5879 20.0444 18.2437 20.7915 17.5552 21.3335C16.8667 21.8755 15.917 22.1465 14.7061 22.1465C13.4951 22.1465 12.5039 21.9585 11.7324 21.5825V19.9272C12.2207 20.1567 12.7383 20.3374 13.2852 20.4692C13.8369 20.6011 14.3496 20.667 14.8232 20.667C15.5166 20.667 16.0269 20.5352 16.354 20.2715C16.686 20.0078 16.8521 19.6538 16.8521 19.2095C16.8521 18.8091 16.7007 18.4697 16.3979 18.1914C16.0952 17.9131 15.4702 17.5835 14.5229 17.2026C13.5464 16.8071 12.8579 16.3555 12.4575 15.8477C12.0571 15.3398 11.8569 14.7295 11.8569 14.0166C11.8569 13.123 12.1743 12.4199 12.8091 11.9072C13.4438 11.3945 14.2959 11.1382 15.3652 11.1382C16.3906 11.1382 17.4111 11.3628 18.4268 11.812L17.8701 13.2402C16.918 12.8398 16.0684 12.6396 15.3213 12.6396C14.7549 12.6396 14.3252 12.7642 14.0322 13.0132C13.7393 13.2573 13.5928 13.582 13.5928 13.9873C13.5928 14.2656 13.6514 14.5049 13.7686 14.7051C13.8857 14.9004 14.0786 15.0859 14.3472 15.2617C14.6157 15.4375 15.0991 15.6694 15.7974 15.9575C16.5835 16.2847 17.1597 16.5898 17.5259 16.873C17.8921 17.1562 18.1606 17.4761 18.3315 17.8325C18.5024 18.189 18.5879 18.6089 18.5879 19.0923ZM26.1904 22L25.9487 20.938H25.8608C25.6216 21.314 25.2798 21.6094 24.8354 21.8242C24.396 22.0391 23.8931 22.1465 23.3267 22.1465C22.3452 22.1465 21.6128 21.9023 21.1294 21.4141C20.646 20.9258 20.4043 20.186 20.4043 19.1948V13.8994H22.1401V18.8945C22.1401 19.5146 22.2671 19.981 22.521 20.2935C22.7749 20.6011 23.1729 20.7549 23.7148 20.7549C24.4375 20.7549 24.9673 20.54 25.3042 20.1104C25.646 19.6758 25.8169 18.9507 25.8169 17.9351V13.8994H27.5454V22H26.1904ZM36.8398 13.8994V14.8442L35.4556 15.1006C35.5825 15.2715 35.6875 15.4814 35.7705 15.7305C35.8535 15.9795 35.895 16.2432 35.895 16.5215C35.895 17.3564 35.6069 18.0132 35.0308 18.4917C34.4546 18.9702 33.6611 19.2095 32.6504 19.2095C32.3916 19.2095 32.1572 19.1899 31.9473 19.1509C31.5762 19.3804 31.3906 19.6489 31.3906 19.9565C31.3906 20.1421 31.4761 20.2812 31.647 20.374C31.8228 20.4668 32.1426 20.5132 32.6064 20.5132H34.02C34.9136 20.5132 35.5923 20.7036 36.0562 21.0845C36.52 21.4653 36.752 22.0146 36.752 22.7324C36.752 23.6504 36.3735 24.3584 35.6167 24.8564C34.8599 25.3545 33.7661 25.6035 32.3354 25.6035C31.2319 25.6035 30.3896 25.4082 29.8086 25.0176C29.2275 24.627 28.937 24.0703 28.937 23.3477C28.937 22.8496 29.0933 22.4297 29.4058 22.0879C29.7231 21.751 30.165 21.5166 30.7314 21.3848C30.502 21.2871 30.3115 21.1309 30.1602 20.916C30.0137 20.6963 29.9404 20.4668 29.9404 20.2275C29.9404 19.9248 30.0259 19.6685 30.1968 19.4585C30.3677 19.2485 30.6216 19.041 30.9585 18.8359C30.5386 18.6553 30.1968 18.3623 29.9331 17.957C29.6743 17.5469 29.5449 17.0684 29.5449 16.5215C29.5449 15.6426 29.8208 14.9614 30.3726 14.478C30.9292 13.9946 31.7202 13.7529 32.7456 13.7529C32.9751 13.7529 33.2144 13.77 33.4634 13.8042C33.7173 13.8335 33.9077 13.8652 34.0347 13.8994H36.8398ZM30.4751 23.2598C30.4751 23.6309 30.6411 23.9165 30.9731 24.1167C31.3101 24.3169 31.7812 24.417 32.3867 24.417C33.3242 24.417 34.0225 24.2827 34.4814 24.0142C34.9404 23.7456 35.1699 23.3892 35.1699 22.9448C35.1699 22.5933 35.043 22.3418 34.7891 22.1904C34.54 22.0439 34.0737 21.9707 33.3901 21.9707H32.0864C31.5933 21.9707 31.2002 22.0854 30.9072 22.3149C30.6191 22.5493 30.4751 22.8643 30.4751 23.2598ZM31.2148 16.5215C31.2148 17.0293 31.3442 17.4199 31.603 17.6934C31.8667 17.9668 32.2427 18.1035 32.731 18.1035C33.7271 18.1035 34.2251 17.5713 34.2251 16.5068C34.2251 15.9795 34.1006 15.5742 33.8516 15.291C33.6074 15.0029 33.2339 14.8589 32.731 14.8589C32.2329 14.8589 31.8545 15.0005 31.5957 15.2837C31.3418 15.5669 31.2148 15.9795 31.2148 16.5215ZM43.417 22L43.0728 20.8721H43.0142C42.6235 21.3652 42.2305 21.7021 41.835 21.8828C41.4395 22.0586 40.9316 22.1465 40.3115 22.1465C39.5156 22.1465 38.8931 21.9316 38.4438 21.502C37.9995 21.0723 37.7773 20.4644 37.7773 19.6782C37.7773 18.8433 38.0874 18.2134 38.7075 17.7886C39.3276 17.3638 40.2725 17.1318 41.542 17.0928L42.9409 17.0488V16.6167C42.9409 16.0991 42.8188 15.7134 42.5747 15.4595C42.3354 15.2007 41.9619 15.0713 41.4541 15.0713C41.0391 15.0713 40.6411 15.1323 40.2603 15.2544C39.8794 15.3765 39.5132 15.5205 39.1616 15.6865L38.605 14.4561C39.0444 14.2266 39.5254 14.0532 40.0479 13.936C40.5703 13.814 41.0635 13.7529 41.5273 13.7529C42.5576 13.7529 43.334 13.9775 43.8564 14.4268C44.3838 14.876 44.6475 15.5815 44.6475 16.5435V22H43.417ZM40.8535 20.8281C41.4785 20.8281 41.979 20.6548 42.355 20.3081C42.7358 19.9565 42.9263 19.4658 42.9263 18.8359V18.1328L41.8862 18.1768C41.0757 18.2061 40.4849 18.3428 40.1138 18.5869C39.7476 18.8262 39.5645 19.1948 39.5645 19.6929C39.5645 20.0542 39.6719 20.335 39.8867 20.5352C40.1016 20.7305 40.4238 20.8281 40.8535 20.8281ZM51.1587 13.7529C51.5054 13.7529 51.791 13.7773 52.0156 13.8262L51.8472 15.4302C51.603 15.3716 51.3491 15.3423 51.0854 15.3423C50.397 15.3423 49.8379 15.5669 49.4082 16.0161C48.9834 16.4653 48.771 17.0488 48.771 17.7666V22H47.0498V13.8994H48.3975L48.6245 15.3276H48.7124C48.981 14.8442 49.3301 14.4609 49.7598 14.1777C50.1943 13.8945 50.6606 13.7529 51.1587 13.7529ZM52.8213 18.7114V17.2466H56.5859V18.7114H52.8213ZM65.1846 22H63.4561V17.0049C63.4561 16.3848 63.3389 15.9233 63.1045 15.6206C62.8701 15.313 62.5039 15.1592 62.0059 15.1592C61.3418 15.1592 60.8535 15.3765 60.541 15.811C60.2334 16.2407 60.0796 16.9585 60.0796 17.9644V22H58.3584V13.8994H59.7061L59.9478 14.9614H60.0356C60.2603 14.5757 60.585 14.2778 61.0098 14.0679C61.4395 13.8579 61.9106 13.7529 62.4233 13.7529C63.6685 13.7529 64.4937 14.1777 64.8989 15.0273H65.0161C65.2554 14.627 65.5923 14.3145 66.0269 14.0898C66.4614 13.8652 66.9595 13.7529 67.521 13.7529C68.4878 13.7529 69.1909 13.9971 69.6304 14.4854C70.0747 14.9736 70.2969 15.7183 70.2969 16.7192V22H68.5757V17.0049C68.5757 16.3848 68.4561 15.9233 68.2168 15.6206C67.9824 15.313 67.6162 15.1592 67.1182 15.1592C66.4492 15.1592 65.9585 15.3691 65.646 15.7891C65.3384 16.2041 65.1846 16.8438 65.1846 17.708V22ZM74.4204 22H72.6992V13.8994H74.4204V22ZM72.5967 11.7534C72.5967 11.4458 72.6797 11.209 72.8457 11.043C73.0166 10.877 73.2583 10.7939 73.5708 10.7939C73.8735 10.7939 74.1079 10.877 74.2739 11.043C74.4448 11.209 74.5303 11.4458 74.5303 11.7534C74.5303 12.0464 74.4448 12.2783 74.2739 12.4492C74.1079 12.6152 73.8735 12.6982 73.5708 12.6982C73.2583 12.6982 73.0166 12.6152 72.8457 12.4492C72.6797 12.2783 72.5967 12.0464 72.5967 11.7534ZM78.6099 22H76.8887V10.6035H78.6099V22ZM82.7407 17.7227L83.7148 16.5068L86.1611 13.8994H88.146L84.8867 17.3784L88.3511 22H86.3296L83.7295 18.4478L82.7847 19.2241V22H81.0781V10.6035H82.7847V16.1626L82.6968 17.7227H82.7407Z" fill="black"/>
<defs>
<filter id="filter0_d" x="0" y="0" width="97" height="39" filterUnits="userSpaceOnUse" color-interpolation-filters="sRGB">
<feFlood flood-opacity="0" result="BackgroundImageFix"/>
<feColorMatrix in="SourceAlpha" type="matrix" values="0 0 0 0 0 0 0 0 0 0 0 0 0 0 0 0 0 0 127 0"/>
<feOffset dy="4"/>
<feGaussianBlur stdDeviation="2"/>
<feColorMatrix type="matrix" values="0 0 0 0 0.35 0 0 0 0 0.35 0 0 0 0 0.35 0 0 0 0.25 0"/>
<feBlend mode="normal" in2="BackgroundImageFix" result="effect1_dropShadow"/>
<feBlend mode="normal" in="SourceGraphic" in2="effect1_dropShadow" result="shape"/>
</filter>
</defs>
</svg>
