<svg width="108" height="39" viewBox="0 0 108 39" fill="none" xmlns="http://www.w3.org/2000/svg">
<g filter="url(#filter0_d)">
<rect x="4" width="100" height="31" rx="3" fill="white"/>
</g>
<path d="M19.7832 11.292H21.5996L17.8496 22H16.0039L12.2686 11.292H14.0703L16.3042 17.9497C16.4214 18.2671 16.5459 18.6772 16.6777 19.1802C16.8096 19.6782 16.895 20.0493 16.9341 20.2935C16.9976 19.9224 17.0952 19.4927 17.2271 19.0044C17.3589 18.5161 17.4663 18.1548 17.5493 17.9204L19.7832 11.292ZM27.8984 22L27.5542 20.8721H27.4956C27.105 21.3652 26.7119 21.7021 26.3164 21.8828C25.9209 22.0586 25.4131 22.1465 24.793 22.1465C23.9971 22.1465 23.3745 21.9316 22.9253 21.502C22.481 21.0723 22.2588 20.4644 22.2588 19.6782C22.2588 18.8433 22.5688 18.2134 23.189 17.7886C23.8091 17.3638 24.7539 17.1318 26.0234 17.0928L27.4224 17.0488V16.6167C27.4224 16.0991 27.3003 15.7134 27.0562 15.4595C26.8169 15.2007 26.4434 15.0713 25.9355 15.0713C25.5205 15.0713 25.1226 15.1323 24.7417 15.2544C24.3608 15.3765 23.9946 15.5205 23.6431 15.6865L23.0864 14.4561C23.5259 14.2266 24.0068 14.0532 24.5293 13.936C25.0518 13.814 25.5449 13.7529 26.0088 13.7529C27.0391 13.7529 27.8154 13.9775 28.3379 14.4268C28.8652 14.876 29.1289 15.5815 29.1289 16.5435V22H27.8984ZM25.335 20.8281C25.96 20.8281 26.4604 20.6548 26.8364 20.3081C27.2173 19.9565 27.4077 19.4658 27.4077 18.8359V18.1328L26.3677 18.1768C25.5571 18.2061 24.9663 18.3428 24.5952 18.5869C24.229 18.8262 24.0459 19.1948 24.0459 19.6929C24.0459 20.0542 24.1533 20.335 24.3682 20.5352C24.583 20.7305 24.9053 20.8281 25.335 20.8281ZM38.6577 22H36.9292V17.0195C36.9292 16.3945 36.8022 15.9282 36.5483 15.6206C36.2993 15.313 35.9014 15.1592 35.3545 15.1592C34.627 15.1592 34.0947 15.374 33.7578 15.8037C33.4209 16.2334 33.2524 16.9536 33.2524 17.9644V22H31.5312V13.8994H32.8789L33.1206 14.9614H33.2085C33.4526 14.5757 33.7993 14.2778 34.2485 14.0679C34.6978 13.8579 35.1958 13.7529 35.7427 13.7529C37.686 13.7529 38.6577 14.7417 38.6577 16.7192V22ZM42.7739 22H41.0527V13.8994H42.7739V22ZM40.9502 11.7534C40.9502 11.4458 41.0332 11.209 41.1992 11.043C41.3701 10.877 41.6118 10.7939 41.9243 10.7939C42.2271 10.7939 42.4614 10.877 42.6274 11.043C42.7983 11.209 42.8838 11.4458 42.8838 11.7534C42.8838 12.0464 42.7983 12.2783 42.6274 12.4492C42.4614 12.6152 42.2271 12.6982 41.9243 12.6982C41.6118 12.6982 41.3701 12.6152 41.1992 12.4492C41.0332 12.2783 40.9502 12.0464 40.9502 11.7534ZM46.9634 22H45.2422V10.6035H46.9634V22ZM51.1528 22H49.4316V10.6035H51.1528V22ZM58.6895 22L58.3452 20.8721H58.2866C57.896 21.3652 57.5029 21.7021 57.1074 21.8828C56.7119 22.0586 56.2041 22.1465 55.584 22.1465C54.7881 22.1465 54.1655 21.9316 53.7163 21.502C53.272 21.0723 53.0498 20.4644 53.0498 19.6782C53.0498 18.8433 53.3599 18.2134 53.98 17.7886C54.6001 17.3638 55.5449 17.1318 56.8145 17.0928L58.2134 17.0488V16.6167C58.2134 16.0991 58.0913 15.7134 57.8472 15.4595C57.6079 15.2007 57.2344 15.0713 56.7266 15.0713C56.3115 15.0713 55.9136 15.1323 55.5327 15.2544C55.1519 15.3765 54.7856 15.5205 54.4341 15.6865L53.8774 14.4561C54.3169 14.2266 54.7979 14.0532 55.3203 13.936C55.8428 13.814 56.3359 13.7529 56.7998 13.7529C57.8301 13.7529 58.6064 13.9775 59.1289 14.4268C59.6562 14.876 59.9199 15.5815 59.9199 16.5435V22H58.6895ZM56.126 20.8281C56.751 20.8281 57.2515 20.6548 57.6274 20.3081C58.0083 19.9565 58.1987 19.4658 58.1987 18.8359V18.1328L57.1587 18.1768C56.3481 18.2061 55.7573 18.3428 55.3862 18.5869C55.02 18.8262 54.8369 19.1948 54.8369 19.6929C54.8369 20.0542 54.9443 20.335 55.1592 20.5352C55.374 20.7305 55.6963 20.8281 56.126 20.8281ZM61.6191 18.7114V17.2466H65.3838V18.7114H61.6191ZM71.9683 22L68.8628 13.0571H68.8042C68.8872 14.3853 68.9287 15.6304 68.9287 16.7925V22H67.3394V11.292H69.8076L72.7812 19.8101H72.8252L75.8867 11.292H78.3623V22H76.6777V16.7046C76.6777 16.1724 76.6899 15.479 76.7144 14.6245C76.7437 13.77 76.7681 13.2524 76.7876 13.0718H76.729L73.5137 22H71.9683ZM82.7202 22H80.999V13.8994H82.7202V22ZM80.8965 11.7534C80.8965 11.4458 80.9795 11.209 81.1455 11.043C81.3164 10.877 81.5581 10.7939 81.8706 10.7939C82.1733 10.7939 82.4077 10.877 82.5737 11.043C82.7446 11.209 82.8301 11.4458 82.8301 11.7534C82.8301 12.0464 82.7446 12.2783 82.5737 12.4492C82.4077 12.6152 82.1733 12.6982 81.8706 12.6982C81.5581 12.6982 81.3164 12.6152 81.1455 12.4492C80.9795 12.2783 80.8965 12.0464 80.8965 11.7534ZM86.9097 22H85.1885V10.6035H86.9097V22ZM91.0405 17.7227L92.0146 16.5068L94.4609 13.8994H96.4458L93.1865 17.3784L96.6509 22H94.6294L92.0293 18.4478L91.0845 19.2241V22H89.3779V10.6035H91.0845V16.1626L90.9966 17.7227H91.0405Z" fill="black"/>
<defs>
<filter id="filter0_d" x="0" y="0" width="108" height="39" filterUnits="userSpaceOnUse" color-interpolation-filters="sRGB">
<feFlood flood-opacity="0" result="BackgroundImageFix"/>
<feColorMatrix in="SourceAlpha" type="matrix" values="0 0 0 0 0 0 0 0 0 0 0 0 0 0 0 0 0 0 127 0"/>
<feOffset dy="4"/>
<feGaussianBlur stdDeviation="2"/>
<feColorMatrix type="matrix" values="0 0 0 0 0.35 0 0 0 0 0.35 0 0 0 0 0.35 0 0 0 0.25 0"/>
<feBlend mode="normal" in2="BackgroundImageFix" result="effect1_dropShadow"/>
<feBlend mode="normal" in="SourceGraphic" in2="effect1_dropShadow" result="shape"/>
</filter>
</defs>
</svg>
